<?xml version="1.0" encoding="UTF-8"?> <svg xmlns="http://www.w3.org/2000/svg" width="348" height="242" viewBox="0 0 348 242" fill="none"> <path d="M293.514 182.915L289.807 238.901C289.786 239.186 289.659 239.452 289.451 239.647C289.242 239.842 288.968 239.951 288.682 239.952C288.532 239.952 288.384 239.922 288.246 239.864C288.108 239.805 287.983 239.719 287.878 239.611C287.774 239.503 287.693 239.375 287.639 239.235C287.586 239.095 287.561 238.945 287.566 238.795L289.09 182.915H293.514Z" fill="#263238" stroke="#263238" stroke-linecap="round" stroke-linejoin="round"></path> <path d="M302.997 182.915L306.704 238.901C306.722 239.185 306.848 239.452 307.055 239.647C307.262 239.842 307.535 239.951 307.82 239.952C307.97 239.952 308.119 239.922 308.258 239.864C308.396 239.805 308.522 239.719 308.627 239.612C308.731 239.504 308.814 239.376 308.868 239.236C308.923 239.096 308.949 238.946 308.944 238.795L307.404 182.947L302.997 182.915Z" fill="#263238" stroke="#263238" stroke-linecap="round" stroke-linejoin="round"></path> <path d="M265.83 182.915L269.537 238.901C269.556 239.185 269.681 239.452 269.888 239.647C270.095 239.842 270.369 239.951 270.653 239.952C270.804 239.952 270.952 239.922 271.091 239.864C271.23 239.805 271.355 239.719 271.46 239.612C271.565 239.504 271.647 239.376 271.701 239.236C271.756 239.096 271.782 238.946 271.777 238.795L270.229 182.947L265.83 182.915Z" fill="#263238" stroke="#263238" stroke-linecap="round" stroke-linejoin="round"></path> <path d="M250.685 182.915L246.978 238.901C246.957 239.186 246.83 239.452 246.622 239.647C246.413 239.842 246.139 239.951 245.853 239.952C245.703 239.951 245.555 239.92 245.417 239.861C245.279 239.803 245.154 239.717 245.049 239.609C244.945 239.501 244.862 239.374 244.807 239.234C244.753 239.095 244.726 238.946 244.729 238.795L246.277 182.947L250.685 182.915Z" fill="#263238" stroke="#263238" stroke-linecap="round" stroke-linejoin="round"></path> <path d="M315.266 126.472C315.266 126.472 278.279 125.087 275.15 125.087C272.022 125.087 271.297 126.472 271.297 126.472L266.017 163.696C266.017 163.696 249.601 159.011 246.383 159.622C243.165 160.233 247.972 183.591 247.972 183.591H266.547L266.881 182.19H308.822L319.959 129.136C319.283 126.708 315.266 126.472 315.266 126.472Z" fill="white" stroke="#263238" stroke-linecap="round" stroke-linejoin="round"></path> <path d="M301.188 149.756C301.188 149.756 304.952 174.197 300.634 177.049C299.966 177.489 296.341 179.574 292.952 179.232C290.23 178.955 271.003 179.232 271.003 179.232C271.003 179.232 268.331 174.149 267.793 170.401C267.256 166.653 271.46 150.571 271.46 150.571L301.188 149.756Z" fill="white" stroke="#263238" stroke-linecap="round" stroke-linejoin="round"></path> <path d="M269.7 162.849C269.7 162.849 241.869 165.741 240.558 166.523C239.246 167.305 233.225 172.56 234.26 175.973C235.295 179.387 232.688 179.648 235.075 180.177C237.462 180.707 271.297 180.699 271.297 180.699" fill="#0046C8"></path> <path d="M269.7 162.849C269.7 162.849 241.869 165.741 240.558 166.523C239.246 167.305 233.225 172.56 234.26 175.973C235.295 179.387 232.688 179.648 235.075 180.177C237.462 180.707 271.297 180.699 271.297 180.699" stroke="#263238" stroke-linecap="round" stroke-linejoin="round"></path> <path d="M244.387 183.55H310.517V178.613H244.387V183.55Z" fill="white" stroke="#263238" stroke-linecap="round" stroke-linejoin="round"></path> <path d="M294.899 163.9H255.06C255.06 163.9 252.966 166.262 252.697 171.232C252.428 176.202 252.966 177.269 256.64 178.564C260.315 179.86 292.952 179.2 292.952 179.2" fill="#0046C8"></path> <path d="M294.899 163.9H255.06C255.06 163.9 252.966 166.262 252.697 171.232C252.428 176.202 252.966 177.269 256.64 178.564C260.315 179.86 292.952 179.2 292.952 179.2" stroke="#263238" stroke-linecap="round" stroke-linejoin="round"></path> <path d="M263.508 227.121L259.337 217.238L252.501 218.534L257.732 227.349L254.717 233.386L248.2 237.647C248.2 237.647 247.442 238.396 250.701 238.144C253.96 237.891 260.722 238.144 260.722 238.144L264.983 233.133C264.983 233.133 266.531 230.583 263.508 227.121Z" fill="white" stroke="#263238" stroke-linecap="round" stroke-linejoin="round"></path> <path d="M265.333 231.439L265.504 237.899H264.486L263.125 234.673L265.333 231.439Z" fill="#263238" stroke="#263238" stroke-linecap="round" stroke-linejoin="round"></path> <path d="M260.73 238.176L264.991 233.166C264.991 233.166 266.091 231.3 264.575 228.612C261.545 233.793 257.512 235.349 257.512 235.349L253.308 234.339L248.208 237.679C248.208 237.679 247.45 238.429 250.709 238.176C253.968 237.924 260.73 238.176 260.73 238.176Z" fill="#263238" stroke="#263238" stroke-linecap="round" stroke-linejoin="round"></path> <path d="M247.124 176.764L261.096 219.006L251.182 220.766L231.629 176.772C231.629 176.772 230.056 170.205 234.252 168.112C238.448 166.018 250.79 164.959 250.79 164.959" fill="#0046C8"></path> <path d="M247.124 176.764L261.096 219.006L251.182 220.766L231.629 176.772C231.629 176.772 230.056 170.205 234.252 168.112C238.448 166.018 250.79 164.959 250.79 164.959" stroke="#263238" stroke-linecap="round" stroke-linejoin="round"></path> <path d="M291.941 183.542C291.941 183.542 287.126 160.152 290.353 159.573C293.579 158.995 309.987 163.647 309.987 163.647L315.266 126.472C315.266 126.472 320.839 125.592 321.426 130.545C322.012 135.499 310.517 183.542 310.517 183.542H291.941Z" fill="#263238" stroke="#263238" stroke-linecap="round" stroke-linejoin="round"></path> <path d="M235.246 114.675L232.761 110.601C232.522 110.211 232.184 109.89 231.783 109.67C231.381 109.45 230.93 109.339 230.472 109.347L228.134 109.387L224.133 108.19C223.879 108.116 223.609 108.119 223.356 108.199C223.104 108.278 222.881 108.431 222.716 108.638L222.569 108.825L226.252 110.455L222.577 111.807L218.675 109.827C218.521 109.749 218.344 109.727 218.176 109.765C218.007 109.804 217.858 109.901 217.754 110.039C217.636 110.193 217.583 110.387 217.607 110.579C217.632 110.772 217.731 110.947 217.885 111.066L223.343 115.278C223.514 115.411 223.712 115.506 223.922 115.556C224.133 115.607 224.352 115.612 224.565 115.571L230.602 114.357L232.289 116.198L235.246 114.675Z" fill="white" stroke="#263238" stroke-linecap="round" stroke-linejoin="round"></path> <path d="M277.334 106.316L254.954 129.723L233.592 112.459L230.643 114.602L254.147 141.234L274.523 130.26L277.334 106.316Z" fill="white" stroke="#263238" stroke-linecap="round" stroke-linejoin="round"></path> <path d="M310.818 112.296L322.55 148.347L312.431 148.64L302.37 131.719C302.37 131.719 308.024 114.651 310.818 112.296Z" fill="white" stroke="#263238" stroke-linecap="round" stroke-linejoin="round"></path> <path d="M298.052 106.104L310.818 112.337L300.129 142.228L301.392 150.563L271.46 150.612L275.028 137.185L272.584 128.582C272.267 127.466 272.25 126.285 272.535 125.16L277.325 106.357L289.905 104.336L298.052 106.104Z" fill="white" stroke="#263238" stroke-linecap="round" stroke-linejoin="round"></path> <path d="M297.441 104.353C297.441 104.353 299.95 106.047 300.031 107.554C300.072 108.442 300.031 109.999 299.95 111.188C299.905 112.117 299.693 113.031 299.323 113.885L294.801 119.343L289.571 115.213L285.228 117.429C285.228 117.429 284.414 110.772 286.312 106.129C288.21 101.485 296.471 103.188 297.441 104.353Z" fill="white" stroke="#263238" stroke-linecap="round" stroke-linejoin="round"></path> <path d="M301.033 91.4395C301.033 91.4395 300.007 95.1301 299.526 97.5742C299.046 100.018 298.076 104.907 298.166 106.74C298.255 108.573 290.54 116.378 289.571 115.213C288.601 114.048 287.583 107.277 287.583 107.277L288.544 96.3277C288.544 96.3277 298.597 85.1907 301.033 91.4395Z" fill="white" stroke="#263238" stroke-linecap="round" stroke-linejoin="round"></path> <path d="M284.91 85.7366C284.91 85.7366 283.534 88.0096 283.534 88.9954C283.534 89.9812 284.014 91.9121 283.933 92.4742C283.851 93.0363 282.483 94.9183 282.303 95.5538C282.213 95.8124 282.221 96.0949 282.324 96.3484C282.428 96.6019 282.62 96.809 282.865 96.9306C283.198 97.1011 283.522 97.2887 283.835 97.4928C283.835 97.4928 284.242 102.511 284.894 103.807C285.546 105.102 286.108 105.672 288.047 105.835C289.986 105.998 294.605 103.97 295.249 102.348C295.893 100.727 295.982 98.7882 296.064 96.4418C296.145 94.0955 294.524 90.7389 293.31 87.5371C292.096 84.3353 287.012 82.5755 284.91 85.7366Z" fill="white" stroke="#263238" stroke-linecap="round" stroke-linejoin="round"></path> <path d="M305.807 102.308C309.241 102.308 312.024 99.5246 312.024 96.0915C312.024 92.6584 309.241 89.8753 305.807 89.8753C302.374 89.8753 299.591 92.6584 299.591 96.0915C299.591 99.5246 302.374 102.308 305.807 102.308Z" fill="#263238" stroke="#263238" stroke-linecap="round" stroke-linejoin="round"></path> <path d="M284.878 85.3863C284.878 85.3863 287.379 83.2273 291.876 87.5208C296.373 91.8143 294.662 98.0224 297.669 99.3096C300.675 100.597 306.239 94.1606 306.883 90.9507C307.527 87.7408 305.596 81.0846 299.591 79.7974C293.587 78.5101 286.23 79.39 284.878 85.3863Z" fill="#263238" stroke="#263238" stroke-linecap="round" stroke-linejoin="round"></path> <path d="M284.878 85.3862C284.825 84.8814 284.887 84.371 285.061 83.8939C285.234 83.4168 285.514 82.9855 285.88 82.6328C286.245 82.2802 286.686 82.0154 287.168 81.8587C287.651 81.7019 288.164 81.6573 288.666 81.7282C292.74 81.9482 293.164 88.3762 295.306 90.9507C297.449 93.5251 298.524 93.0934 298.524 93.0934C298.524 93.0934 294.883 94.1606 292.52 92.8734C290.157 91.5861 289.017 84.3271 284.878 85.3862Z" fill="#263238" stroke="#263238" stroke-linecap="round" stroke-linejoin="round"></path> <path d="M291.534 80.9787C293.677 82.3027 295.379 84.2339 296.422 86.5268C298.272 90.4456 298.272 93.68 302.663 93.4518C302.663 93.4518 300.585 93.9162 297.351 92.295C294.117 90.6737 293.424 86.0625 291.347 84.2131C290.213 83.1404 288.747 82.4878 287.192 82.3637" stroke="white" stroke-width="0.5" stroke-linecap="round" stroke-linejoin="round"></path> <path d="M306.883 90.9507C306.883 90.9507 306.696 96.8329 302.182 98.0713" stroke="white" stroke-width="0.5" stroke-linecap="round" stroke-linejoin="round"></path> <path d="M294.288 96.9551C294.288 96.9551 298.589 91.3255 299.6 95.5293C300.61 99.7332 297.155 100.76 295.526 100.279C293.897 99.7984 294.125 98.9267 294.125 98.9267" fill="white"></path> <path d="M294.288 96.9551C294.288 96.9551 298.589 91.3255 299.6 95.5293C300.61 99.7332 297.155 100.76 295.526 100.279C293.897 99.7984 294.125 98.9267 294.125 98.9267" stroke="#263238" stroke-linecap="round" stroke-linejoin="round"></path> <path d="M284.715 145.129C284.715 145.129 276.503 146.269 275.134 146.269C273.765 146.269 270.343 150.603 270.343 150.603H285.399L284.715 145.129Z" fill="white" stroke="#263238" stroke-linecap="round" stroke-linejoin="round"></path> <path d="M319.601 139.605L322.55 146.253C322.682 146.644 322.72 147.061 322.661 147.47C322.601 147.879 322.446 148.268 322.208 148.605C321.97 148.943 321.655 149.219 321.29 149.412C320.924 149.605 320.519 149.709 320.106 149.715L284.503 149.919L284.731 145.129L312.334 140.762" fill="white"></path> <path d="M319.601 139.605L322.55 146.253C322.682 146.644 322.72 147.061 322.661 147.47C322.601 147.879 322.446 148.268 322.208 148.605C321.97 148.943 321.655 149.219 321.29 149.412C320.924 149.605 320.519 149.709 320.106 149.715L284.503 149.919L284.731 145.129L312.334 140.762" stroke="#263238" stroke-linecap="round" stroke-linejoin="round"></path> <path d="M271.948 231.439L272.119 237.899H271.101L269.74 234.673L271.948 231.439Z" fill="#263238" stroke="#263238" stroke-linecap="round" stroke-linejoin="round"></path> <path d="M270.123 227.121L268.812 217.719L261.985 218.159L264.347 227.414L261.333 233.451L254.815 237.712C254.815 237.712 254.066 238.461 257.324 238.209C260.583 237.956 267.345 238.209 267.345 238.209L271.606 233.198C271.606 233.198 273.146 230.583 270.123 227.121Z" fill="white" stroke="#263238" stroke-linecap="round" stroke-linejoin="round"></path> <path d="M267.345 238.176L271.606 233.166C271.606 233.166 272.706 231.3 271.183 228.612C268.152 233.793 264.119 235.349 264.119 235.349L259.923 234.339L254.815 237.679C254.815 237.679 254.066 238.429 257.324 238.176C260.583 237.924 267.345 238.176 267.345 238.176Z" fill="#263238" stroke="#263238" stroke-linecap="round" stroke-linejoin="round"></path> <path d="M266.995 169.488L269.92 219.446L260.657 219.666L251.613 174.279C251.613 174.279 251.784 165.635 254.546 164.641C257.308 163.647 264.641 164.714 264.641 164.714" fill="#0046C8"></path> <path d="M266.995 169.488L269.92 219.446L260.657 219.666L251.613 174.279C251.613 174.279 251.784 165.635 254.546 164.641C257.308 163.647 264.641 164.714 264.641 164.714" stroke="#263238" stroke-linecap="round" stroke-linejoin="round"></path> <path d="M226.504 61.9554L238 94.177C238 94.177 236.484 101.469 231.922 101.167C227.359 100.866 226.146 94.4784 224.932 93.566C223.718 92.6535 221.893 85.6633 221.893 85.6633L226.504 61.9554Z" fill="white" stroke="#263238" stroke-linecap="round" stroke-linejoin="round"></path> <path d="M196.767 55.4948L178.078 62.2405L185.247 114.064H218.968L226.504 61.9554L206.332 55.6414L196.767 55.4948Z" fill="white" stroke="#263238" stroke-linecap="round" stroke-linejoin="round"></path> <path d="M198.568 64.375L201.264 68.4404L198.926 102.919L202.364 111.897L205.892 103.163L202.869 68.9537L205.297 63.0797L201.932 58.6558L198.568 64.375Z" fill="#0046C8" stroke="#263238" stroke-linecap="round" stroke-linejoin="round"></path> <path d="M202.299 62.6967L197.484 66.3059L194.315 56.896L196.523 52.13L206.373 51.8937L208.776 54.0527L208.295 66.0615L202.299 62.6967Z" fill="white" stroke="#263238" stroke-linecap="round" stroke-linejoin="round"></path> <path d="M207.391 49.6859L206.642 55.7391L201.248 62.6967L197.215 55.6414V44.2925C197.215 44.2925 204.279 46.0604 207.391 49.6859Z" fill="white" stroke="#263238" stroke-linecap="round" stroke-linejoin="round"></path> <path d="M194.445 37.1068C194.445 31.6076 198.454 27.1511 203.407 27.1511C208.36 27.1511 211.106 31.852 211.106 37.3512C211.106 39.1273 210.739 42.1743 210.593 43.7956C210.34 46.5656 209.501 47.7388 207.863 50.2236C202.495 58.3707 198.087 46.4189 195.83 42.4024C194.917 40.7874 194.439 38.9623 194.445 37.1068Z" fill="white" stroke="#263238" stroke-linecap="round" stroke-linejoin="round"></path> <path d="M207.301 38.834L208.059 44.5125L205.395 44.4392" fill="white"></path> <path d="M207.301 38.834L208.059 44.5125L205.395 44.4392" stroke="#263238" stroke-linecap="round" stroke-linejoin="round"></path> <path d="M213.249 37.8482L200.442 37.9053C200.284 38.4033 200.26 38.9339 200.372 39.4442C200.483 39.9545 200.726 40.4267 201.077 40.8138C201.892 41.6285 205.208 41.3433 205.737 41.1315C206.267 40.9197 206.552 38.5896 206.552 38.5896H207.505C207.505 38.5896 207.611 41.0337 208.98 41.2374C210.348 41.4411 212.133 41.3759 212.475 41.1315C213.99 40.1131 213.249 37.8482 213.249 37.8482Z" fill="white" stroke="#263238" stroke-linecap="round" stroke-linejoin="round"></path> <path d="M196.026 43.3231C196.026 43.3231 198.91 49.2297 199.594 51.2746C200.279 53.3195 203.668 54.9163 207.098 53.7757C210.528 52.6351 209.599 47.5595 209.599 47.5595C209.599 47.5595 205.957 44.4473 205.281 45.1154C204.605 45.7835 200.955 48.7571 200.727 48.0728C200.499 47.3884 198.91 43.2986 198.91 43.2986L198.169 40.3983L199.692 39.4206C199.912 39.2374 200.055 38.9783 200.093 38.6945C200.131 38.4108 200.06 38.1233 199.896 37.889L199.179 36.8543C199.09 36.7276 199.028 36.5844 198.996 36.4333C198.964 36.2822 198.962 36.1261 198.991 35.9744C199.179 35.0864 199.692 33.2451 200.882 32.7156C202.511 32.0394 204.491 33.0252 206.316 33.4814C208.141 33.9376 210.12 32.2919 210.12 32.2919L210.935 34.9968C212.741 33.3015 214.025 31.1247 214.634 28.7235C215.546 24.8537 206.218 23.265 203.228 23.265C200.238 23.265 195.496 24.8944 194.128 29.1798C192.759 33.4651 195.219 42.5572 196.026 43.3231Z" fill="#263238" stroke="#263238" stroke-linecap="round" stroke-linejoin="round"></path> <path d="M203.407 28.748C203.407 28.748 205.102 31.2898 202.878 31.8194C200.653 32.349 196.319 30.4425 194.413 31.1839" stroke="white" stroke-width="0.5" stroke-linecap="round" stroke-linejoin="round"></path> <path d="M199.594 34.3531C199.594 34.3531 196.107 33.9294 194.706 35.4122" stroke="white" stroke-width="0.5" stroke-linecap="round" stroke-linejoin="round"></path> <path d="M207.986 47.201C207.986 47.201 205.42 48.5371 204.149 46.9484" stroke="white" stroke-width="0.5" stroke-linecap="round" stroke-linejoin="round"></path> <path d="M196.458 41.5225C196.458 41.5225 193.94 38.7525 193.94 41.7751C193.94 44.7976 194.698 44.7976 196.205 45.8486C197.712 46.8996 198.226 45.596 198.226 45.596" fill="white"></path> <path d="M196.458 41.5225C196.458 41.5225 193.94 38.7525 193.94 41.7751C193.94 44.7976 194.698 44.7976 196.205 45.8486C197.712 46.8996 198.226 45.596 198.226 45.596" stroke="#263238" stroke-linecap="round" stroke-linejoin="round"></path> <path d="M230.072 229.32H230.187L229.967 228.212L218.968 114.072H185.247L174.159 229.312H174.281L181.435 229.923C181.435 229.923 189.37 203.282 189.37 201.295C189.37 199.307 191.635 180.927 191.635 180.927L202.886 141.373L212.833 180.927C212.833 180.927 215.098 199.347 215.098 201.295C215.098 203.242 223.042 229.94 223.042 229.94L229.771 229.361H230.072V229.32Z" fill="#263238" stroke="#263238" stroke-linecap="round" stroke-linejoin="round"></path> <path d="M216.451 120.785L208.947 131.499" stroke="white" stroke-width="0.5" stroke-linecap="round" stroke-linejoin="round"></path> <path d="M212.434 123.197L207.88 130.7" stroke="white" stroke-width="0.5" stroke-linecap="round" stroke-linejoin="round"></path> <path d="M191.007 122.667L197.696 129.894" stroke="white" stroke-width="0.5" stroke-linecap="round" stroke-linejoin="round"></path> <path d="M190.47 125.34L200.108 134.986" stroke="white" stroke-width="0.5" stroke-linecap="round" stroke-linejoin="round"></path> <path d="M187.252 115.164H216.988" stroke="white" stroke-width="0.5" stroke-linecap="round" stroke-linejoin="round"></path> <path d="M174.281 229.312C174.281 229.312 169.988 232.693 167.511 233.622C165.035 234.551 160.407 237.019 160.407 237.019C160.407 237.019 160.407 238.567 164.423 238.567H180.188L179.919 229.312H174.281Z" fill="#263238" stroke="#263238" stroke-linecap="round" stroke-linejoin="round"></path> <path d="M180.131 236.881C173.836 237.169 167.529 237.068 161.246 236.58L160.431 237.019C160.431 237.019 160.431 238.567 164.448 238.567H180.212L180.131 236.881Z" fill="white" stroke="#263238" stroke-linecap="round" stroke-linejoin="round"></path> <path d="M229.421 229.312C229.421 229.312 233.722 232.693 236.191 233.622C238.66 234.551 243.303 237.019 243.303 237.019C243.303 237.019 243.303 238.567 239.279 238.567H223.522L223.807 229.312H229.421Z" fill="#263238" stroke="#263238" stroke-linecap="round" stroke-linejoin="round"></path> <path d="M223.571 236.881C229.866 237.169 236.173 237.068 242.456 236.58L243.271 237.019C243.271 237.019 243.271 238.567 239.246 238.567H223.522L223.571 236.881Z" fill="white" stroke="#263238" stroke-linecap="round" stroke-linejoin="round"></path> <path d="M178.078 62.2406L165.662 95.391H177.573L182.021 86.3477L178.078 62.2406Z" fill="white" stroke="#263238" stroke-linecap="round" stroke-linejoin="round"></path> <path d="M232.395 90.2583C227.425 88.2052 211.481 87.1868 210.65 87.1868C209.819 87.1868 183.903 85.0523 181.777 84.7427C179.65 84.4331 177.214 89.3051 177.214 89.3051L188.457 88.9955L202.136 91.7329C202.136 91.7329 229.836 101.762 231.922 101.159C232.206 101.064 232.463 100.902 232.672 100.687" fill="white"></path> <path d="M232.395 90.2583C227.425 88.2052 211.481 87.1868 210.65 87.1868C209.819 87.1868 183.903 85.0523 181.777 84.7427C179.65 84.4331 177.214 89.3051 177.214 89.3051L188.457 88.9955L202.136 91.7329C202.136 91.7329 229.836 101.762 231.922 101.159C232.206 101.064 232.463 100.902 232.672 100.687" stroke="#263238" stroke-linecap="round" stroke-linejoin="round"></path> <path d="M174.477 88.7022L217.33 84.4494L217.64 88.0912L180.555 99.3423C180.555 99.3423 173.874 100.858 168.701 99.9451C163.527 99.0327 165.971 93.8674 167.185 90.8286" fill="white"></path> <path d="M174.477 88.7022L217.33 84.4494L217.64 88.0912L180.555 99.3423C180.555 99.3423 173.874 100.858 168.701 99.9451C163.527 99.0327 165.971 93.8674 167.185 90.8286" stroke="#263238" stroke-linecap="round" stroke-linejoin="round"></path> <path d="M217.339 84.4494L225.543 84.1398L227.97 89.0036L217.64 88.0992L217.339 84.4494Z" fill="white" stroke="#263238" stroke-linecap="round" stroke-linejoin="round"></path> <path d="M271.981 155.932L278.979 239.252C278.998 239.376 279.041 239.495 279.107 239.602C279.174 239.708 279.261 239.8 279.364 239.872C279.467 239.944 279.583 239.994 279.706 240.019C279.829 240.044 279.956 240.043 280.079 240.018C280.289 239.966 280.473 239.84 280.597 239.663C280.721 239.487 280.777 239.271 280.755 239.056L275.989 155.956L271.981 155.932Z" fill="#263238" stroke="#263238" stroke-linecap="round" stroke-linejoin="round"></path> <path d="M319.014 155.932L326.037 239.529C326.054 239.653 326.097 239.773 326.163 239.88C326.229 239.988 326.316 240.08 326.419 240.152C326.523 240.224 326.64 240.274 326.763 240.298C326.887 240.323 327.014 240.322 327.137 240.295C327.346 240.243 327.53 240.117 327.654 239.94C327.779 239.764 327.835 239.548 327.813 239.333L323.031 155.932H319.014Z" fill="#263238" stroke="#263238" stroke-linecap="round" stroke-linejoin="round"></path> <path d="M124.919 155.932L121.261 238.527C121.24 238.743 121.298 238.96 121.424 239.138C121.549 239.316 121.734 239.443 121.945 239.496C122.066 239.527 122.192 239.532 122.315 239.51C122.438 239.488 122.555 239.44 122.658 239.369C122.761 239.298 122.847 239.205 122.911 239.098C122.975 238.991 123.015 238.871 123.028 238.747L128.951 155.932H124.919Z" fill="#263238" stroke="#263238" stroke-linecap="round" stroke-linejoin="round"></path> <path d="M81.5679 155.932L77.8854 238.217C77.8672 238.435 77.9268 238.651 78.0537 238.829C78.1805 239.007 78.3663 239.133 78.5779 239.187C78.6989 239.216 78.8247 239.22 78.9472 239.197C79.0697 239.175 79.186 239.127 79.2884 239.056C79.3908 238.985 79.4771 238.893 79.5414 238.786C79.6057 238.68 79.6466 238.561 79.6615 238.437L85.5599 155.899L81.5679 155.932Z" fill="#263238" stroke="#263238" stroke-linecap="round" stroke-linejoin="round"></path> <path d="M328.171 151.312H78.9608V158.465H328.171V151.312Z" fill="#0046C8" stroke="#263238" stroke-linecap="round" stroke-linejoin="round"></path> <path d="M328.171 151.312H78.9608V153.765H328.171V151.312Z" fill="#263238" stroke="#263238" stroke-linecap="round" stroke-linejoin="round"></path> <path d="M328.163 151.312H265.806V158.465H328.163V151.312Z" fill="#263238" stroke="#263238" stroke-linecap="round" stroke-linejoin="round"></path> <path d="M330.387 148.933H76.7367V151.663H330.387V148.933Z" fill="#0046C8" stroke="#263238" stroke-linecap="round" stroke-linejoin="round"></path> <path d="M330.379 148.933H268.405V151.663H330.379V148.933Z" fill="#263238" stroke="#263238" stroke-linecap="round" stroke-linejoin="round"></path> <path d="M133.237 148.689H167.275C167.405 148.69 167.532 148.653 167.641 148.582C167.749 148.511 167.835 148.409 167.886 148.29L177.312 126.798C177.355 126.697 177.373 126.587 177.363 126.478C177.353 126.369 177.316 126.264 177.256 126.172C177.195 126.081 177.113 126.006 177.016 125.954C176.919 125.903 176.811 125.876 176.701 125.877H142.663C142.535 125.877 142.41 125.914 142.303 125.983C142.196 126.053 142.112 126.152 142.06 126.268L132.666 147.76C132.622 147.858 132.603 147.965 132.61 148.073C132.617 148.18 132.65 148.284 132.706 148.375C132.762 148.467 132.84 148.543 132.932 148.598C133.025 148.652 133.129 148.684 133.237 148.689Z" fill="white" stroke="#263238" stroke-linecap="round" stroke-linejoin="round"></path> <path d="M136.43 147.011H165.475C165.583 147.011 165.69 146.979 165.781 146.92C165.872 146.86 165.944 146.776 165.988 146.677L174.029 128.338C174.073 128.251 174.093 128.155 174.088 128.058C174.084 127.961 174.054 127.867 174.003 127.785C173.951 127.703 173.879 127.636 173.794 127.59C173.708 127.544 173.613 127.521 173.516 127.523H144.472C144.361 127.522 144.252 127.554 144.159 127.615C144.066 127.676 143.994 127.763 143.95 127.865L135.925 146.22C135.888 146.305 135.871 146.398 135.878 146.491C135.885 146.584 135.915 146.673 135.965 146.751C136.015 146.83 136.084 146.894 136.165 146.94C136.246 146.985 136.337 147.009 136.43 147.011Z" fill="#0046C8" stroke="#263238" stroke-linecap="round" stroke-linejoin="round"></path> <path d="M167.748 147.263H116.608V148.933H167.748V147.263Z" fill="white" stroke="#263238" stroke-linecap="round" stroke-linejoin="round"></path> <path d="M167.756 147.263H142.964V148.933H167.756V147.263Z" fill="white" stroke="#263238" stroke-linecap="round" stroke-linejoin="round"></path> <path d="M184.18 135.637H175.161V148.966H184.18V135.637Z" fill="white" stroke="#263238" stroke-linecap="round" stroke-linejoin="round"></path> <path d="M183.781 147.149H182.836C182.639 147.149 182.451 147.071 182.312 146.932C182.173 146.793 182.095 146.604 182.095 146.408C182.095 146.211 182.173 146.023 182.312 145.884C182.451 145.744 182.639 145.666 182.836 145.666H183.781C184.154 145.664 184.511 145.515 184.775 145.251C185.039 144.987 185.188 144.63 185.19 144.257V140.998C185.188 140.625 185.039 140.268 184.775 140.004C184.511 139.74 184.154 139.591 183.781 139.589H182.567C182.47 139.589 182.373 139.569 182.283 139.532C182.193 139.495 182.112 139.44 182.043 139.372C181.974 139.303 181.919 139.221 181.882 139.131C181.845 139.041 181.826 138.945 181.826 138.847C181.826 138.75 181.845 138.654 181.882 138.564C181.919 138.474 181.974 138.392 182.043 138.323C182.112 138.254 182.193 138.2 182.283 138.162C182.373 138.125 182.47 138.106 182.567 138.106H183.781C184.161 138.106 184.537 138.181 184.888 138.326C185.239 138.471 185.558 138.684 185.826 138.953C186.095 139.222 186.308 139.54 186.453 139.891C186.598 140.242 186.673 140.618 186.673 140.998V144.257C186.673 144.637 186.598 145.013 186.453 145.364C186.308 145.715 186.095 146.033 185.826 146.302C185.558 146.571 185.239 146.784 184.888 146.929C184.537 147.074 184.161 147.149 183.781 147.149Z" fill="white" stroke="#263238" stroke-linecap="round" stroke-linejoin="round"></path> <path d="M254.644 148.689H220.606C220.477 148.688 220.352 148.65 220.245 148.579C220.138 148.508 220.054 148.408 220.003 148.29L210.577 126.798C210.534 126.698 210.516 126.588 210.525 126.48C210.535 126.371 210.571 126.267 210.631 126.176C210.69 126.084 210.772 126.009 210.868 125.957C210.963 125.905 211.071 125.878 211.18 125.877H245.218C245.347 125.877 245.473 125.913 245.581 125.983C245.69 126.052 245.776 126.151 245.829 126.268L255.255 147.76C255.298 147.861 255.315 147.972 255.305 148.081C255.295 148.191 255.259 148.296 255.198 148.388C255.138 148.48 255.055 148.555 254.959 148.608C254.862 148.66 254.754 148.688 254.644 148.689Z" fill="white" stroke="#263238" stroke-linecap="round" stroke-linejoin="round"></path> <path d="M220.133 148.933H271.272V147.263H220.133V148.933Z" fill="white" stroke="#263238" stroke-linecap="round" stroke-linejoin="round"></path> <path d="M220.133 148.933H255.394V147.263H220.133V148.933Z" fill="white" stroke="#263238" stroke-linecap="round" stroke-linejoin="round"></path> <path d="M233.478 134.798C233.663 135.147 233.74 135.543 233.701 135.935C233.661 136.328 233.507 136.7 233.257 137.005C233.007 137.311 232.672 137.535 232.295 137.651C231.918 137.767 231.515 137.769 231.136 137.657C230.758 137.544 230.421 137.323 230.168 137.02C229.915 136.717 229.757 136.346 229.714 135.954C229.671 135.562 229.745 135.166 229.926 134.815C230.107 134.465 230.388 134.175 230.733 133.983C231.205 133.728 231.759 133.671 232.274 133.824C232.788 133.976 233.221 134.327 233.478 134.798Z" fill="white" stroke="#263238" stroke-linecap="round" stroke-linejoin="round"></path> <path d="M74.3089 71.5363L76.8182 96.3278L88.2241 129.348L84.3217 131.58L70.9279 101.355L64.2391 75.4062C64.2391 75.4062 63.677 67.6013 66.4714 66.4444C69.2659 65.2875 73.1928 66.5177 74.3089 71.5363Z" fill="white" stroke="#263238" stroke-linecap="round" stroke-linejoin="round"></path> <path d="M88.2566 129.38C88.2566 129.38 90.7659 134.684 91.051 136.077C91.3362 137.471 91.6213 140.314 90.5215 141.585C89.1935 143.116 87.9796 141.935 87.9796 141.935C87.9796 141.935 84.6311 141.12 84.6311 138.31C84.6311 135.499 84.3541 131.613 84.3541 131.613L88.2566 129.38Z" fill="white" stroke="#263238" stroke-linecap="round" stroke-linejoin="round"></path> <path d="M85.5193 137.699L90.2201 138.921" stroke="#263238" stroke-linecap="round" stroke-linejoin="round"></path> <path d="M86.6435 134.529L87.9796 136.631C87.9796 136.631 84.8674 141.951 86.5375 140.558C88.2077 139.165 91.328 137.471 91.051 136.077C90.5792 134.615 89.9567 133.207 89.1935 131.873" fill="white"></path> <path d="M86.6435 134.529L87.9796 136.631C87.9796 136.631 84.8674 141.951 86.5375 140.558C88.2077 139.165 91.328 137.471 91.051 136.077C90.5792 134.615 89.9567 133.207 89.1935 131.873" stroke="#263238" stroke-linecap="round" stroke-linejoin="round"></path> <path d="M60.9721 41.7425C60.9721 41.7425 58.1043 38.6466 51.4889 40.6345C44.8735 42.6224 43.3419 53.2136 43.5455 58.501C43.7492 63.7885 48.8411 69.7521 47.3013 72.3999C45.7615 75.0477 40.0179 81.2232 40.4578 87.8793C40.8977 94.5355 46.4133 99.7904 54.3567 97.3625C62.3001 94.9347 60.9721 85.2153 59.3916 81.6631C57.811 78.111 61.1595 76.5875 62.2593 68.8641C63.3592 61.1407 56.3038 54.7452 56.3038 49.2297C56.3038 43.7141 62.0068 44.6021 62.0068 44.6021L60.9721 41.7425Z" fill="#263238" stroke="#263238" stroke-linecap="round" stroke-linejoin="round"></path> <path d="M51.0327 62.6805C52.0756 64.8313 53.2895 67.1287 54.4952 69.6055C58.5199 77.8177 55.3751 80.7832 49.2567 85.3293C43.1382 89.8753 44.5395 95.4642 46.1119 96.3278" stroke="white" stroke-width="0.5" stroke-linecap="round" stroke-linejoin="round"></path> <path d="M58.8701 43.9178C58.8701 43.9178 50.6579 44.6184 48.556 49.857C47.285 53.0425 48.2627 56.6109 50.1365 60.7659" stroke="white" stroke-width="0.5" stroke-linecap="round" stroke-linejoin="round"></path> <path d="M52.8657 94.2829C53.4975 94.5204 54.1713 94.6257 54.8455 94.5925" stroke="white" stroke-width="0.5" stroke-linecap="round" stroke-linejoin="round"></path> <path d="M60.9722 43.3719C60.9722 43.3719 53.2813 44.7651 51.5379 50.354C49.7944 55.9429 60.1004 64.204 60.6218 70.2817C61.1433 76.3594 53.8027 79.9115 51.1957 84.6287C49.3626 87.9364 49.5663 91.5781 51.4971 93.4112" stroke="white" stroke-width="0.5" stroke-linecap="round" stroke-linejoin="round"></path> <path d="M80.7044 155.858C80.7044 155.858 78.8061 172.25 76.8997 177.481C74.9933 182.711 70.7242 223.813 70.488 226.192C70.2517 228.571 76.6635 234.029 79.2787 235.7C81.8939 237.37 80.7044 237.834 77.8529 238.07C75.0014 238.307 71.6774 237.834 70.2517 235.219C68.826 232.604 65.4938 231.895 65.4938 231.895L65.0213 237.598H64.0681L63.3593 230.469C63.117 228.851 63.3638 227.197 64.0681 225.719C65.2576 223.104 65.6975 217.638 65.6975 210.24C65.6975 202.843 64.2718 190.989 64.9806 185.286C65.6894 179.583 68.549 175.305 68.549 170.556C68.549 165.806 68.7852 158.677 68.7852 158.677L80.7044 155.858Z" fill="white" stroke="#263238" stroke-linecap="round" stroke-linejoin="round"></path> <path d="M63.3592 230.469C63.17 229.243 63.2732 227.99 63.6606 226.811C65.1353 229.304 69.3636 232.685 72.6224 234.029C74.3894 234.794 76.3157 235.119 78.2357 234.975C78.6186 235.26 78.9771 235.504 79.2786 235.7C81.8938 237.329 80.7043 237.834 77.8528 238.07C75.0013 238.307 71.6773 237.834 70.2516 235.219C68.8259 232.604 65.4937 231.895 65.4937 231.895L65.0212 237.598H64.068L63.3592 230.469Z" fill="#263238" stroke="#263238" stroke-linecap="round" stroke-linejoin="round"></path> <path d="M66.9194 158.474C66.9194 158.474 62.8459 170.588 59.082 181.041C55.318 191.494 46.2503 215.495 45.2971 219.772C44.3439 224.049 43.8714 231.895 41.2236 235.936C38.5758 239.977 35.9932 241.875 36.4657 234.746C36.9382 227.618 41.2236 222.387 42.1686 216.921C43.1137 211.454 43.5944 191.738 46.9184 182.947C50.2424 174.157 53.8108 167.028 54.2507 164.413C54.5756 161.81 54.7335 159.19 54.7233 156.567L66.9194 158.474Z" fill="white" stroke="#263238" stroke-linecap="round" stroke-linejoin="round"></path> <path d="M36.9544 231.691C36.9896 233.035 37.4079 234.341 38.1602 235.455C39.5289 236.987 41.7368 234.013 42.8855 232.196C42.5097 233.507 41.9618 234.761 41.2561 235.928C38.6409 239.961 36.0257 241.867 36.4982 234.738C36.5768 233.713 36.7293 232.695 36.9544 231.691Z" fill="#263238" stroke="#263238" stroke-linecap="round" stroke-linejoin="round"></path> <path d="M65.0457 62.8434C65.0457 62.8434 63.62 64.0329 62.6668 72.1147C61.7135 80.1966 67.6609 105.379 67.6609 105.379C67.6609 105.379 57.4445 122.113 55.0655 130.431C52.6866 138.75 51.2609 169.912 51.2609 169.912C51.2609 169.912 56.255 171.818 66.4714 172.527C76.6878 173.236 82.1545 170.629 82.1545 170.629C82.1545 170.629 82.6271 126.154 82.6271 119.303C82.6271 112.451 83.1077 96.8655 83.8165 94.9673C84.5253 93.069 86.668 88.0748 86.668 86.1766C86.668 84.2783 72.378 64.0329 72.378 64.0329L65.0457 62.8434Z" fill="white" stroke="#263238" stroke-linecap="round" stroke-linejoin="round"></path> <path d="M55.0412 130.431C56.9151 123.914 64.6711 106.577 67.4411 103.595C71.6531 104.996 79.3358 106.381 82.7657 105.355C82.6598 107.799 82.6028 116.924 82.6028 119.262C82.6028 126.154 82.1302 170.588 82.1302 170.588C82.1302 170.588 76.6636 173.203 66.4471 172.487C56.2307 171.77 51.2366 169.871 51.2366 169.871C51.2366 169.871 52.6623 138.75 55.0412 130.431Z" fill="#263238" stroke="#263238" stroke-linecap="round" stroke-linejoin="round"></path> <path d="M70.3169 34.8338C70.3169 34.8338 72.8669 29.2775 77.91 29.2775C82.953 29.2775 85.1934 33.7583 84.0773 37.6771C82.9611 41.5958 87.4339 40.4797 87.996 43.0053C88.5582 45.5309 84.3543 47.201 82.1138 47.201C79.8734 47.201 70.3169 34.8338 70.3169 34.8338Z" fill="#263238" stroke="#263238" stroke-linecap="round" stroke-linejoin="round"></path> <path d="M77.6819 34.2635C79.1809 33.4488 80.9407 32.8622 81.7554 34.1331C83.3278 36.5773 78.4396 38.5 80.0119 41.1233C81.5843 43.7467 85.4297 43.046 85.2505 43.9178C85.0713 44.7895 82.6353 45.3109 82.6353 45.3109" stroke="white" stroke-width="0.5" stroke-linecap="round" stroke-linejoin="round"></path> <path d="M75.1155 36.0395C75.1155 36.0395 75.5962 35.624 76.3131 35.1189" stroke="white" stroke-width="0.5" stroke-linecap="round" stroke-linejoin="round"></path> <path d="M83.2462 47.7632C82.8895 47.4981 82.6086 47.1442 82.4315 46.7367C82.0241 43.7304 81.1442 40.773 79.4822 39.111C76.968 36.7442 73.7615 35.2452 70.3331 34.8338C69.3179 34.6842 68.2816 34.7791 67.3105 35.1108C62.9844 36.6262 59.2694 39.6161 60.0678 46.8263C60.9477 54.7697 67.1313 56.7575 67.1313 56.7575L67.5712 61.6458L73.7467 64.5135L73.9667 59.218C73.9667 59.218 78.1543 60.9777 79.6696 60.7578C81.185 60.5378 81.6575 58.5499 82.3174 55.6821C82.5597 54.3736 82.6797 53.0453 82.6759 51.7145L84.5253 49.8733C85.5762 48.806 84.5416 48.5453 83.2462 47.7632Z" fill="white" stroke="#263238" stroke-linecap="round" stroke-linejoin="round"></path> <path d="M60.0517 46.8263C59.237 39.6161 62.9684 36.6262 67.2945 35.1108C68.2656 34.7791 69.3018 34.6842 70.317 34.8338C72.6544 35.1463 74.9045 35.9277 76.9324 37.1313C75.6941 36.8787 77.8042 40.5204 75.8652 42.8342C74.1672 44.9821 72.0024 46.7151 69.5349 47.9017C69.5349 47.9017 67.3352 46.1338 66.6671 48.5616C65.9991 50.9894 66.2272 52.7492 67.9951 53.1973C69.763 53.6454 70.4392 53.1973 70.4392 53.1973C70.4392 53.1973 69.2661 55.9754 67.1804 57.1242V56.725C67.1804 56.725 60.9724 54.7778 60.0517 46.8263Z" fill="#263238" stroke="#263238" stroke-linecap="round" stroke-linejoin="round"></path> <path d="M76.8996 63.0796L75.7183 69.4995L63.1229 62.8434L64.3124 56.9042L76.8996 63.0796Z" fill="white" stroke="#263238" stroke-linecap="round" stroke-linejoin="round"></path> <path d="M70.8138 117.209C72.1181 117.488 73.4417 117.668 74.7733 117.746C75.8079 117.681 77.2174 116.516 78.2602 117.013C79.303 117.51 80.7613 120.647 80.7613 120.647C80.7613 120.647 82.1463 121.347 81.7471 122.089C81.3479 122.83 79.6371 123.515 79.6371 123.515C79.6371 123.515 78.0076 125.054 77.0626 125.209C76.1175 125.364 70.3575 121.136 70.3575 121.136L70.8138 117.209Z" fill="white" stroke="#263238" stroke-linecap="round" stroke-linejoin="round"></path> <path d="M71.4249 120.256C71.6156 120.027 71.7526 119.758 71.8258 119.469C71.8991 119.18 71.9067 118.878 71.848 118.586C71.7894 118.294 71.6661 118.018 71.4872 117.78C71.3082 117.542 71.0782 117.347 70.8139 117.209L54.9842 102.381L72.2233 75.5772C72.9925 74.16 73.1793 72.4989 72.744 70.9462C72.3088 69.3936 71.2857 68.0716 69.8919 67.2607C68.4981 66.4499 66.8432 66.214 65.2783 66.6031C63.7135 66.9921 62.3618 67.9756 61.51 69.3447L46.5682 99.0408C45.7914 99.7947 45.3422 100.824 45.3178 101.906C45.2934 102.989 45.6958 104.037 46.4379 104.825L46.4949 104.882C47.994 107.196 64.4836 119.294 69.3067 120.875C69.6814 120.994 70.0829 120.998 70.4601 120.888C70.8373 120.778 71.1732 120.558 71.4249 120.256Z" fill="white" stroke="#263238" stroke-linecap="round" stroke-linejoin="round"></path> <path d="M134.06 79.219C134.06 79.219 136.105 85.5493 136.105 86.7795C136.09 87.668 136.022 88.5549 135.901 89.4354L137.701 92.2299C137.807 92.4096 137.84 92.6229 137.793 92.826C137.746 93.0291 137.623 93.2064 137.449 93.3216L134.671 94.951C134.671 94.951 134.263 101.469 133.856 102.283C133.449 103.098 126.524 102.903 126.524 102.903L124.275 107.188L112.625 102.699L115.688 94.3155L115.053 81.6631C115.053 81.6631 122.206 75.341 134.06 79.219Z" fill="white" stroke="#263238" stroke-linecap="round" stroke-linejoin="round"></path> <path d="M126.084 94.6169C126.084 94.6169 124.055 96.5233 122.531 96.6537C121.008 96.784 116.055 95.6353 115.672 95.1302C115.289 94.6251 111.867 87.5127 111.989 84.0828C112.111 80.6529 112.25 75.5772 115.924 73.9315C119.599 72.2858 125.448 72.7828 128.495 70.8845C131.542 68.9863 136.365 67.4546 138.907 70.7542C141.449 74.0537 139.543 78.6242 137.514 80.5306C135.485 82.4371 132.943 82.9748 133.196 83.7895C133.449 84.6042 134.972 85.5655 134.084 86.8365C133.196 88.1074 130.01 89.2806 130.01 89.7531C130.01 90.2256 130.776 92.0424 129.888 92.295C129 92.5476 128.104 90.5189 127.216 90.5189C126.328 90.5189 124.438 92.9712 126.084 94.6169Z" fill="#263238" stroke="#263238" stroke-linecap="round" stroke-linejoin="round"></path> <path d="M120.78 88.7918C120.414 89.2012 120.102 89.6557 119.851 90.1442" stroke="white" stroke-width="0.5" stroke-linecap="round" stroke-linejoin="round"></path> <path d="M137.465 75.6343C137.304 77.0325 136.794 78.3679 135.983 79.5181C135.172 80.6682 134.084 81.5962 132.821 82.2171C129.562 83.9035 125.22 85.2804 122.336 87.3986" stroke="white" stroke-width="0.5" stroke-linecap="round" stroke-linejoin="round"></path> <path d="M133.196 83.8302C133.196 83.8302 130.304 86.2743 127.208 88.7918C125.095 90.427 122.747 91.7318 120.242 92.6616" stroke="white" stroke-width="0.5" stroke-linecap="round" stroke-linejoin="round"></path> <path d="M125.88 94.9591L127.509 95.3665C127.411 96.1282 127.469 96.9021 127.681 97.6404C127.892 98.3788 128.253 99.0661 128.74 99.66" fill="white"></path> <path d="M125.88 94.9591L127.509 95.3665C127.411 96.1282 127.469 96.9021 127.681 97.6404C127.892 98.3788 128.253 99.0661 128.74 99.66" stroke="#263238" stroke-linecap="round" stroke-linejoin="round"></path> <path d="M127.77 90.5841L139.274 87.7327" stroke="#263238" stroke-linecap="round" stroke-linejoin="round"></path> <path d="M136.316 87.5046L138.94 87.6186C138.94 87.6186 139.844 90.5842 137.115 90.9263" stroke="#263238" stroke-linecap="round" stroke-linejoin="round"></path> <path d="M124.715 228.359C124.715 228.359 135.306 235.048 137.172 235.048C139.037 235.048 139.966 236.726 139.037 236.914C138.109 237.101 132.341 237.28 128.446 237.468C124.552 237.655 121.929 237.28 119.704 237.28C117.48 237.28 114.865 237.468 113.749 236.914C112.633 236.36 114.499 230.029 114.499 228.913C114.499 227.797 123.411 227.61 124.715 228.359Z" fill="#263238" stroke="#263238" stroke-linecap="round" stroke-linejoin="round"></path> <path d="M138.369 235.325C134.255 236.677 127.583 235.789 123.574 235.423C120.405 235.137 115.427 235.072 113.399 235.056C113.317 236.009 113.399 236.734 113.716 236.914C114.833 237.468 117.44 237.28 119.672 237.28C121.904 237.28 124.503 237.655 128.414 237.468C132.324 237.28 138.084 237.093 139.005 236.914C139.73 236.767 139.388 235.806 138.369 235.325Z" fill="white" stroke="#263238" stroke-linecap="round" stroke-linejoin="round"></path> <path d="M133.082 182.41L124.723 224.326L126.467 228.677C125.215 230.489 123.328 231.763 121.179 232.245C118.79 232.715 116.363 232.966 113.928 232.995C113.928 232.995 113 228.343 113.562 227.781C114.124 227.218 114.303 224.994 114.303 224.994L119.134 182.776L133.082 182.41Z" fill="#0046C8" stroke="#263238" stroke-linecap="round" stroke-linejoin="round"></path> <path d="M158.558 226.942C158.558 226.942 165.075 232.335 168.049 233.264C171.023 234.192 174.184 235.121 174.184 236.05C174.184 236.979 167.12 237.908 161.727 237.354C156.334 236.8 148.146 234.38 146.288 234.38C144.431 234.38 144.797 229.54 144.797 228.799C144.797 228.058 153.914 222.102 158.558 226.942Z" fill="#263238" stroke="#263238" stroke-linecap="round" stroke-linejoin="round"></path> <path d="M174.216 236.05C174.216 235.716 173.801 235.382 173.141 235.048C167.817 235.76 162.42 235.722 157.108 234.934C151.755 234.168 147.274 233.141 144.985 232.571C145.18 233.573 145.563 234.38 146.321 234.38C148.178 234.38 156.366 236.824 161.76 237.353C167.153 237.883 174.216 236.979 174.216 236.05Z" fill="white" stroke="#263238" stroke-linecap="round" stroke-linejoin="round"></path> <path d="M126.206 163.623C131.783 163.196 137.388 163.321 142.94 163.997C152.423 165.113 173.614 166.441 173.98 168.837C174.347 171.232 157.54 221.573 157.54 222.868C157.54 224.163 159.022 225.475 159.397 226.216C159.633 226.745 159.761 227.316 159.772 227.895C159.772 227.895 155.218 232.783 151.682 234.111C148.146 235.439 145.164 234.192 144.431 234.192C143.698 234.192 143.69 229.174 144.252 226.754C144.814 224.334 145.734 218.2 145.922 217.646C146.109 217.092 156.293 181.294 156.293 181.294C156.293 181.294 128.593 185.758 112.046 183.892C95.4997 182.027 93.8214 179.436 92.8926 175.525C91.9639 171.615 93.8214 163.81 93.8214 163.81L126.206 163.623Z" fill="#0046C8" stroke="#263238" stroke-linecap="round" stroke-linejoin="round"></path> <path d="M124.112 175.672C123.736 176.216 123.316 176.728 122.857 177.204" stroke="#263238" stroke-linecap="round" stroke-linejoin="round"></path> <path d="M129.179 165.667C128.11 168.345 126.878 170.954 125.489 173.48" stroke="#263238" stroke-linecap="round" stroke-linejoin="round"></path> <path d="M126.963 167.533C124.719 171.235 121.322 174.097 117.293 175.68" stroke="#263238" stroke-linecap="round" stroke-linejoin="round"></path> <path d="M169.182 177.798C169.817 177.554 170.428 177.301 171.006 177.041L169.182 177.798Z" fill="white"></path> <path d="M169.182 177.798C169.817 177.554 170.428 177.301 171.006 177.041" stroke="#263238" stroke-linecap="round" stroke-linejoin="round"></path> <path d="M156.293 181.294C159.872 180.602 163.408 179.708 166.884 178.613L156.293 181.294Z" fill="white"></path> <path d="M156.293 181.294C159.872 180.602 163.408 179.708 166.884 178.613" stroke="#263238" stroke-linecap="round" stroke-linejoin="round"></path> <path d="M177.793 119.531C178.184 117.975 178.836 118.097 178.314 117.583C177.597 116.867 177.019 117.714 174.941 118.879C172.864 120.044 170.795 121.47 170.795 121.47C170.84 121.037 171.019 120.63 171.308 120.305C171.833 119.446 172.115 118.46 172.123 117.453C172.123 116.638 171.471 116.801 171.21 117.583C170.949 118.366 168.619 119.783 168.489 120.435C168.359 121.087 167.894 123.645 167.894 123.645C167.153 124.761 167.153 129.967 167.153 129.967L152.056 141.308L144.431 150.27C144.431 150.27 147.779 155.663 149.637 154.921C151.494 154.18 152.423 153.431 156.888 149.707C160.668 146.554 170.143 132.012 170.143 132.012C171.793 130.975 173.355 129.804 174.811 128.509C176.491 126.608 177.484 124.198 177.63 121.665C177.595 120.95 177.65 120.233 177.793 119.531Z" fill="white" stroke="#263238" stroke-linecap="round" stroke-linejoin="round"></path> <path d="M107.94 102.324C107.94 102.324 109.374 96.947 115.468 98.0224C121.562 99.0978 126.222 104.116 127.298 105.909C128.373 107.701 107.582 105.192 107.582 105.192L107.94 102.324Z" fill="white" stroke="#263238" stroke-linecap="round" stroke-linejoin="round"></path> <path d="M143.07 149.284C143.07 149.284 141.653 150.815 143.07 153.227C144.04 154.897 145.751 156.176 149.026 155.614C152.089 155.076 156.692 147.467 156.692 142.114C156.692 136.762 152.749 136.411 151.315 137.454C149.881 138.497 143.07 149.284 143.07 149.284Z" fill="white" stroke="#263238" stroke-linecap="round" stroke-linejoin="round"></path> <path d="M110.58 101.697C110.58 101.697 96.078 108.581 94.0331 109.844C91.9882 111.107 90.6847 127.319 90.6847 130.114C90.6847 132.908 92.7296 160.258 93.2836 164.885C93.8376 169.513 111.696 172.698 117.651 171.02C123.607 169.342 129.408 165.113 129.408 163.623C129.408 162.132 128.846 149.496 129.22 147.076C129.595 144.656 132.935 134.432 132.935 134.432L143.087 150.628C143.087 150.628 144.154 152.616 147.926 151.052C153.319 148.819 153.767 140.192 153.767 140.192C153.767 140.192 147.82 129.78 146.142 124.574C144.463 119.368 143.698 115.457 142.981 114.528C142.264 113.6 125.497 105.787 122.523 103.742C120.84 102.473 118.877 101.626 116.8 101.271C114.722 100.915 112.589 101.061 110.58 101.697Z" fill="white" stroke="#263238" stroke-linecap="round" stroke-linejoin="round"></path> <path d="M132.895 134.432L128.063 127.36" stroke="#263238" stroke-linecap="round" stroke-linejoin="round"></path> <path d="M132.112 133.421L123.599 129.226" stroke="#263238" stroke-linecap="round" stroke-linejoin="round"></path> <path d="M106.881 186.76L114.311 239.569C114.328 239.692 114.371 239.809 114.436 239.914C114.501 240.019 114.587 240.11 114.689 240.179C114.791 240.249 114.907 240.297 115.028 240.32C115.15 240.342 115.274 240.339 115.395 240.311C115.603 240.259 115.787 240.135 115.912 239.96C116.038 239.786 116.097 239.572 116.079 239.358L110.84 185.888L106.881 186.76Z" fill="#263238" stroke="#263238" stroke-linecap="round" stroke-linejoin="round"></path> <path d="M85.5357 187.176L73.1196 239.04C73.0912 239.16 73.0882 239.285 73.1108 239.407C73.1334 239.528 73.1812 239.643 73.251 239.745C73.3207 239.847 73.411 239.934 73.5161 239.999C73.6211 240.064 73.7386 240.106 73.861 240.123C74.0734 240.155 74.2901 240.108 74.4702 239.991C74.6503 239.874 74.7813 239.695 74.8386 239.488L89.2589 189.155L85.5357 187.176Z" fill="#263238" stroke="#263238" stroke-linecap="round" stroke-linejoin="round"></path> <path d="M108.087 186.532L100.184 239.268C100.166 239.39 100.173 239.514 100.205 239.632C100.236 239.751 100.292 239.862 100.368 239.958C100.445 240.055 100.54 240.134 100.649 240.192C100.757 240.25 100.876 240.285 100.999 240.295C101.213 240.306 101.424 240.24 101.593 240.109C101.763 239.977 101.878 239.788 101.919 239.578L111.949 188.186L108.087 186.532Z" fill="#263238" stroke="#263238" stroke-linecap="round" stroke-linejoin="round"></path> <path d="M136.064 186.76L143.494 239.569C143.511 239.692 143.553 239.809 143.618 239.914C143.684 240.019 143.77 240.11 143.872 240.179C143.974 240.249 144.089 240.297 144.211 240.32C144.332 240.342 144.457 240.339 144.577 240.311C144.786 240.259 144.97 240.135 145.095 239.96C145.221 239.786 145.28 239.572 145.262 239.358L139.999 185.872L136.064 186.76Z" fill="#263238" stroke="#263238" stroke-linecap="round" stroke-linejoin="round"></path> <path d="M73.7793 131.955L82.8226 190.752H147.135C147.135 190.752 148.089 173.806 145.254 167.818C142.418 161.83 107.41 174.67 106.148 174.336C105.211 174.1 106.596 143.744 108.315 131.882C108.435 131.047 108.374 130.195 108.137 129.386C107.899 128.576 107.49 127.828 106.938 127.19C106.385 126.553 105.702 126.041 104.935 125.691C104.167 125.341 103.333 125.16 102.49 125.16H79.5963C78.7462 125.159 77.906 125.343 77.1336 125.698C76.3611 126.053 75.6748 126.571 75.122 127.217C74.5691 127.863 74.1628 128.621 73.931 129.439C73.6992 130.257 73.6475 131.115 73.7793 131.955Z" fill="#0046C8" stroke="#263238" stroke-linecap="round" stroke-linejoin="round"></path> <path d="M145.254 167.818C142.418 161.83 107.41 174.67 106.148 174.336C105.211 174.1 106.596 143.744 108.315 131.882C108.465 131.057 108.432 130.21 108.217 129.4C108.003 128.59 107.613 127.837 107.074 127.195C106.536 126.553 105.862 126.037 105.102 125.685C104.342 125.332 103.513 125.152 102.675 125.156C101.837 125.16 101.011 125.349 100.254 125.709C99.4972 126.069 98.8292 126.592 98.2973 127.239C97.7655 127.887 97.3828 128.644 97.1766 129.456C96.9705 130.268 96.9458 131.116 97.1045 131.939L106.148 190.736H147.136C147.136 190.736 148.089 173.806 145.254 167.818Z" fill="#263238" stroke="#263238" stroke-linecap="round" stroke-linejoin="round"></path> <path d="M177.793 119.531C177.793 119.531 176.758 120.565 175.202 122.382L177.793 119.531Z" fill="white"></path> <path d="M177.793 119.531C177.793 119.531 176.758 120.565 175.202 122.382" stroke="#263238" stroke-linecap="round" stroke-linejoin="round"></path> <path d="M177.63 121.633C177.63 121.633 176.367 124.199 175.593 125.364L177.63 121.633Z" fill="white"></path> <path d="M177.63 121.633C177.63 121.633 176.367 124.199 175.593 125.364" stroke="#263238" stroke-linecap="round" stroke-linejoin="round"></path> <path d="M3.42128 151.353C4.77369 151.94 8.07325 151.866 8.0814 151.866C8.08955 151.866 7.3726 149.707 7.30743 149.577C6.58234 148.053 4.28487 145.552 2.41919 145.805C2.11035 145.855 1.8156 145.97 1.5542 146.142C1.29281 146.314 1.07065 146.539 0.902257 146.803C0.733861 147.067 0.623013 147.363 0.576957 147.673C0.530901 147.982 0.550672 148.298 0.634981 148.599C0.944569 149.887 2.2644 150.848 3.42128 151.353Z" fill="#263238"></path> <path d="M46.7219 140.102C44.8481 139.898 42.6484 142.465 41.9396 144.004C41.8825 144.135 41.1982 146.318 41.2308 146.318C40.8723 146.717 40.4975 147.133 40.0983 147.638C39.3651 148.534 38.5504 149.561 37.7275 150.734C36.8412 151.991 36.0253 153.297 35.2834 154.644C34.4472 156.156 33.7439 157.737 33.1815 159.37C33.185 159.389 33.185 159.408 33.1815 159.427C33.1815 158.881 33.1815 157.333 33.1815 157.219C32.9615 155.549 31.5521 152.453 29.7108 152.111C29.4041 152.061 29.0904 152.077 28.7899 152.156C28.4894 152.235 28.2089 152.376 27.9663 152.57C27.7238 152.764 27.5246 153.007 27.3817 153.283C27.2387 153.559 27.1551 153.862 27.1363 154.172C27.0223 155.5 27.9511 156.828 28.9206 157.659C29.9797 158.604 32.9126 159.516 33.1489 159.59C32.6162 161.283 32.2024 163.012 31.9105 164.763C31.7231 165.773 31.5765 166.792 31.438 167.818C31.438 167.338 31.438 166.914 31.438 166.857C31.2262 165.187 29.8086 162.091 27.9755 161.749C27.6664 161.7 27.3505 161.718 27.0484 161.799C26.7463 161.881 26.4648 162.025 26.222 162.222C25.9793 162.42 25.7807 162.666 25.6393 162.945C25.4979 163.224 25.4167 163.53 25.401 163.842C25.2951 165.17 26.2157 166.498 27.1934 167.338C28.171 168.177 30.6233 169.016 31.2669 169.22C31.218 169.619 31.161 170.034 31.1121 170.401C30.8921 172.291 30.6722 174.181 30.4033 176.022C30.3056 176.674 30.1915 177.31 30.0774 177.945C30.0774 177.521 30.0774 177.171 30.0774 177.13C29.8575 175.46 28.448 172.364 26.6068 172.022C26.2976 171.975 25.982 171.993 25.6803 172.076C25.3787 172.159 25.0978 172.304 24.8558 172.502C24.6139 172.7 24.4163 172.947 24.2758 173.226C24.1353 173.506 24.0552 173.812 24.0405 174.124C23.9345 175.444 24.8552 176.772 25.8328 177.611C27.0493 178.415 28.3819 179.028 29.7841 179.428C29.6456 180.08 29.5071 180.723 29.3442 181.351C29.222 181.774 29.1405 182.165 28.9939 182.605C28.8472 183.045 28.725 183.42 28.5947 183.844C28.3095 184.617 28.0244 185.424 27.7311 186.174C27.5274 186.703 27.3237 187.2 27.1282 187.697C27.226 187.053 27.3971 185.783 27.4052 185.677C27.3822 184.196 26.9812 182.746 26.2402 181.465C26.2604 181.302 26.2604 181.138 26.2402 180.976C26.2032 180.662 26.0999 180.36 25.9372 180.089C25.7744 179.819 25.5559 179.586 25.2962 179.406C25.0364 179.227 24.7414 179.105 24.4308 179.048C24.1202 178.991 23.801 179.001 23.4946 179.077C21.6697 179.558 20.5209 182.752 20.4313 184.43C20.4313 184.528 20.4965 185.611 20.5454 186.296C20.4558 185.897 20.3661 185.481 20.2684 185.106C20.081 184.292 19.861 183.477 19.641 182.662C19.5107 182.247 19.3885 181.847 19.2581 181.416C19.1278 180.984 18.9648 180.601 18.8182 180.145C18.4597 179.159 18.0524 178.181 17.6124 177.204C18.3131 177.033 20.8061 176.389 21.8082 175.631C22.8103 174.874 23.8612 173.611 23.8531 172.283C23.8628 171.967 23.8048 171.652 23.6832 171.36C23.5615 171.068 23.3789 170.805 23.1475 170.589C22.9162 170.373 22.6415 170.209 22.3416 170.108C22.0418 170.006 21.7238 169.97 21.409 170.002C19.5351 170.205 17.9057 173.187 17.5717 174.833C17.5717 174.939 17.4332 176.145 17.3843 176.813C17.1236 176.226 16.8548 175.639 16.5696 175.053C15.7549 173.375 14.8261 171.688 13.9381 170.01L13.1234 168.462C13.376 168.405 16.3822 167.72 17.4739 166.832C18.5656 165.944 19.527 164.82 19.5188 163.484C19.5272 163.168 19.4684 162.854 19.3463 162.562C19.2241 162.271 19.0415 162.009 18.8105 161.793C18.5794 161.577 18.3052 161.413 18.006 161.312C17.7068 161.21 17.3893 161.173 17.0747 161.203C15.2009 161.407 13.5796 164.388 13.2375 166.034C13.2375 166.164 13.0501 167.9 13.0338 168.348C12.4472 167.215 11.8687 166.075 11.3473 164.934C10.6315 163.392 10.0165 161.806 9.5061 160.184C9.62016 160.184 12.7649 159.451 13.8892 158.555C14.8832 157.789 15.9423 156.535 15.926 155.207C15.9357 154.89 15.8777 154.576 15.7561 154.283C15.6344 153.991 15.4518 153.728 15.2205 153.513C14.9891 153.297 14.7144 153.133 14.4145 153.031C14.1147 152.93 13.7968 152.894 13.4819 152.925C11.608 153.129 9.98678 156.111 9.6446 157.757C9.6446 157.887 9.44907 159.761 9.44092 160.103C9.44092 160.005 9.37575 159.916 9.34316 159.818C8.88013 158.179 8.56118 156.502 8.38995 154.807C8.29219 153.87 8.24331 152.974 8.21072 152.094C8.80546 152.021 11.4695 151.663 12.6346 150.986C13.7996 150.31 14.8995 149.202 15.0787 147.882C15.1211 147.572 15.0979 147.257 15.0105 146.956C14.9231 146.656 14.7735 146.377 14.5715 146.138C14.3695 145.9 14.1195 145.706 13.8377 145.57C13.556 145.434 13.2488 145.358 12.936 145.349C11.0459 145.349 9.1069 148.135 8.58548 149.732C8.58548 149.821 8.37366 150.734 8.24331 151.402C8.24331 151.011 8.24331 150.587 8.24331 150.221C8.24331 148.795 8.33292 147.491 8.42254 146.343C8.47957 145.683 8.54475 145.088 8.60992 144.534C9.15578 144.159 11.331 142.628 11.9991 141.528C12.6672 140.428 13.1886 138.904 12.6997 137.666C12.5948 137.372 12.4291 137.103 12.2134 136.877C11.9977 136.652 11.7369 136.474 11.448 136.355C11.159 136.237 10.8484 136.181 10.5363 136.19C10.2241 136.2 9.91756 136.275 9.63646 136.411C7.95816 137.275 7.51822 140.64 7.79522 142.302C7.79522 142.44 8.45513 144.64 8.47957 144.624C8.40625 145.153 8.33292 145.723 8.26775 146.351C8.15369 147.508 8.03963 148.795 7.99889 150.245C7.94979 151.783 7.98787 153.323 8.11295 154.856C8.23296 156.577 8.5056 158.284 8.92766 159.956C8.93119 159.975 8.93119 159.995 8.92766 160.013C8.63436 159.549 7.76263 158.278 7.68116 158.188C6.58131 156.917 3.70539 155.101 1.97821 155.842C1.69344 155.971 1.43909 156.159 1.23177 156.393C1.02445 156.627 0.868815 156.902 0.775023 157.201C0.68123 157.499 0.651388 157.814 0.687443 158.124C0.723499 158.435 0.824642 158.734 0.984272 159.003C1.62789 160.168 3.15954 160.747 4.40604 160.926C5.80733 161.13 8.75657 160.274 8.99284 160.209C9.47743 161.898 10.0735 163.552 10.777 165.162C11.1844 166.099 11.5917 167.036 12.0724 167.965C11.8036 167.566 11.5592 167.215 11.5266 167.15C10.4267 165.879 7.55081 164.062 5.82363 164.804C5.54366 164.946 5.29709 165.147 5.10017 165.392C4.90325 165.637 4.76044 165.92 4.68116 166.224C4.60188 166.528 4.58792 166.846 4.6402 167.156C4.69248 167.465 4.80982 167.761 4.98448 168.022C5.61995 169.187 7.15975 169.765 8.3981 169.945C9.63645 170.124 12.1865 169.456 12.8545 169.26C13.0338 169.619 13.2049 169.977 13.3841 170.328C14.1988 172.03 15.1031 173.725 15.8934 175.411C16.1704 176.006 16.423 176.601 16.7081 177.196L16.2274 176.511C15.1276 175.24 12.2517 173.432 10.5245 174.165C10.2401 174.296 9.98648 174.485 9.77995 174.72C9.57343 174.955 9.41867 175.231 9.32571 175.53C9.23275 175.829 9.20367 176.144 9.24037 176.455C9.27706 176.765 9.3787 177.065 9.53869 177.334C10.1823 178.499 11.714 179.077 12.9523 179.257C14.4246 179.263 15.889 179.043 17.2947 178.605C17.5391 179.224 17.7835 179.843 17.9872 180.446C18.1257 180.87 18.2805 181.261 18.3864 181.693C18.4923 182.124 18.6227 182.507 18.7367 182.947C18.9323 183.762 19.1359 184.577 19.307 185.391C19.4292 185.937 19.5351 186.467 19.641 187.021C19.364 186.426 18.8263 185.269 18.753 185.18C17.8568 183.754 15.2905 181.53 13.4656 181.994C13.1653 182.081 12.8865 182.23 12.6474 182.431C12.4082 182.632 12.214 182.881 12.0773 183.163C11.9406 183.444 11.8645 183.75 11.8538 184.063C11.8431 184.375 11.8982 184.686 12.0154 184.976C12.4716 186.222 13.8974 187.029 15.095 187.42C16.423 187.819 19.3478 187.42 19.7144 187.42C19.8936 188.292 20.0484 189.147 20.195 189.954C20.6839 192.748 21.0098 195.103 21.1808 196.74C21.1808 197.034 21.246 197.294 21.2705 197.555H15.5675L17.6369 237.94H27.2993L29.3686 197.555H24.0812L24.2034 197.319C24.9285 195.803 25.9306 193.636 27.0141 190.98C27.3645 190.166 27.7148 189.245 28.0651 188.316C28.4236 188.39 31.3239 188.976 32.6682 188.667C33.8984 188.39 35.3812 187.697 35.927 186.491C36.0663 186.211 36.1449 185.904 36.1576 185.592C36.1703 185.279 36.1169 184.967 36.0007 184.676C35.8846 184.386 35.7085 184.123 35.4838 183.905C35.2591 183.687 34.9909 183.519 34.6968 183.412C32.9126 182.809 30.1915 184.837 29.1894 186.19C29.1324 186.271 28.5865 187.208 28.2525 187.819L28.6843 186.679C28.9694 185.905 29.2301 185.114 29.499 184.275L29.8656 183.029C30.0041 182.613 30.0937 182.165 30.2078 181.725C30.4441 180.707 30.6396 179.664 30.8188 178.605C31.495 178.849 33.931 179.697 35.1856 179.607C36.4403 179.517 38.0127 179.061 38.7378 177.978C38.9216 177.72 39.0486 177.427 39.1106 177.117C39.1725 176.807 39.1679 176.487 39.097 176.179C39.0262 175.871 38.8907 175.582 38.6995 175.33C38.5084 175.078 38.2659 174.87 37.9882 174.719C36.3588 173.904 33.3118 175.452 32.1223 176.633C32.049 176.715 31.3076 177.66 30.884 178.189C30.9818 177.554 31.0795 176.919 31.161 176.267C31.3973 174.401 31.5684 172.503 31.7557 170.613C31.8128 170.034 31.8779 169.456 31.935 168.877C32.1794 168.967 35.0471 170.034 36.4566 169.936C37.7031 169.847 39.2755 169.391 40.0006 168.307C40.1844 168.05 40.3114 167.757 40.3734 167.447C40.4353 167.137 40.4307 166.817 40.3598 166.509C40.289 166.201 40.1535 165.911 39.9623 165.659C39.7712 165.408 39.5287 165.199 39.251 165.048C37.6216 164.193 34.5828 165.781 33.3851 166.963C33.2955 167.052 32.2038 168.421 31.9431 168.78C32.0816 167.509 32.2283 166.246 32.4238 164.999C32.6746 163.321 33.0366 161.66 33.5074 160.03C33.6214 160.03 36.6032 161.195 38.0534 161.097C39.2999 161.007 40.8723 160.543 41.5974 159.468C41.7825 159.211 41.9107 158.917 41.9733 158.607C42.036 158.297 42.0317 157.977 41.9607 157.668C41.8898 157.36 41.7538 157.07 41.5619 156.818C41.37 156.567 41.1265 156.359 40.8479 156.209C39.2184 155.345 36.1796 156.934 34.982 158.123C34.8924 158.213 33.7192 159.687 33.5236 159.964L33.597 159.679C34.1142 158.055 34.774 156.479 35.5686 154.97C36.0004 154.156 36.4566 153.341 36.9128 152.608C37.4505 152.877 39.9109 154.074 41.2145 154.123C42.518 154.172 44.0822 153.887 44.9295 152.86C45.1309 152.626 45.2813 152.353 45.3712 152.057C45.4611 151.762 45.4886 151.451 45.4518 151.145C45.415 150.838 45.3148 150.543 45.1576 150.277C45.0003 150.011 44.7895 149.781 44.5385 149.601C42.9661 148.559 39.8132 149.805 38.5015 150.856C38.4282 150.913 37.7601 151.573 37.2876 152.062C37.4994 151.728 37.7112 151.377 37.9231 151.068C38.7378 149.878 39.5036 148.844 40.2205 147.923C40.6279 147.41 41.0352 146.954 41.3693 146.53C42.0292 146.53 44.6933 146.432 45.8583 145.886C47.0233 145.34 48.3024 144.355 48.5713 143.059C48.6839 142.743 48.7236 142.406 48.6874 142.072C48.6512 141.739 48.5399 141.418 48.362 141.133C48.1842 140.849 47.9442 140.608 47.6602 140.43C47.3761 140.251 47.0554 140.139 46.7219 140.102ZM25.9876 190.41C24.8552 193.017 23.8123 195.143 23.071 196.618L22.6555 197.433H22.5333C22.5333 197.148 22.4518 196.83 22.4029 196.48C22.1748 194.85 21.8163 192.455 21.2542 189.644C21.0831 188.756 20.8794 187.811 20.6594 186.842C21.54 186.486 22.3995 186.081 23.2339 185.628C24.3673 186.611 25.6312 187.434 26.9897 188.072C26.6557 188.862 26.3135 189.661 25.9876 190.41Z" fill="#263238"></path> <path d="M36.8569 152.078C36.8569 152.078 37.4598 149.887 37.4761 149.74C37.7124 148.07 37.1828 144.721 35.4801 143.898C35.1971 143.772 34.8909 143.706 34.581 143.704C34.271 143.702 33.9641 143.765 33.6798 143.888C33.3954 144.012 33.1399 144.193 32.9295 144.421C32.719 144.648 32.5583 144.917 32.4575 145.21C32.0013 146.457 32.5797 147.988 33.2722 149.047C34.0869 150.318 36.8569 152.078 36.8569 152.078Z" fill="#263238"></path> <path d="M343.618 237.745H12.2363V241.802H343.618V237.745Z" fill="#263238"></path> </svg> 